<svg width="397" height="270" viewBox="0 0 397 270" fill="none" xmlns="http://www.w3.org/2000/svg">
<mask id="path-1-outside-1_38117_1910" maskUnits="userSpaceOnUse" x="53.322" y="35.5508" width="232" height="234" fill="black">
<rect fill="white" x="53.322" y="35.5508" width="232" height="234"/>
<path fill-rule="evenodd" clip-rule="evenodd" d="M240.369 36.5508C264.643 63.1292 275.048 101.113 265.176 141.442C247.894 212.039 175.018 263.09 102.403 255.467C84.5214 253.589 68.3234 248.329 54.322 240.412C71.5221 255.482 93.9949 265.548 120.106 268.289C191.871 275.823 263.942 225.173 281.081 155.159C292.864 107.026 275.617 62.2712 240.369 36.5508Z"/>
</mask>
<path fill-rule="evenodd" clip-rule="evenodd" d="M240.369 36.5508C264.643 63.1292 275.048 101.113 265.176 141.442C247.894 212.039 175.018 263.09 102.403 255.467C84.5214 253.589 68.3234 248.329 54.322 240.412C71.5221 255.482 93.9949 265.548 120.106 268.289C191.871 275.823 263.942 225.173 281.081 155.159C292.864 107.026 275.617 62.2712 240.369 36.5508Z" fill="#66E070"/>
<path d="M265.176 141.442L264.69 141.323L265.176 141.442ZM240.369 36.5508L240.663 36.1469L239.999 36.888L240.369 36.5508ZM102.403 255.467L102.455 254.969L102.403 255.467ZM54.322 240.412L54.5681 239.977L53.9925 240.788L54.322 240.412ZM120.106 268.289L120.158 267.792L120.106 268.289ZM281.081 155.159L281.567 155.278L281.081 155.159ZM265.661 141.561C275.572 101.076 265.129 62.9198 240.738 36.2136L239.999 36.888C264.157 63.3387 274.524 101.15 264.69 141.323L265.661 141.561ZM102.35 255.964C175.212 263.613 248.32 212.403 265.661 141.561L264.69 141.323C247.468 211.676 174.823 262.567 102.455 254.969L102.35 255.964ZM54.0759 240.848C68.1391 248.8 84.4034 254.08 102.35 255.964L102.455 254.969C84.6394 253.099 68.5078 247.859 54.5681 239.977L54.0759 240.848ZM53.9925 240.788C71.2734 255.929 93.8442 266.035 120.053 268.786L120.158 267.792C94.1456 265.061 71.7708 255.035 54.6515 240.036L53.9925 240.788ZM120.053 268.786C192.067 276.347 264.368 225.535 281.567 155.278L280.595 155.04C263.516 224.811 191.675 275.3 120.158 267.792L120.053 268.786ZM281.567 155.278C293.396 106.955 276.082 61.9911 240.663 36.1469L240.074 36.9547C275.153 62.5513 292.332 107.096 280.595 155.04L281.567 155.278Z" fill="black" mask="url(#path-1-outside-1_38117_1910)"/>
<mask id="path-3-inside-2_38117_1910" fill="white">
<path d="M266.834 142.709C284.116 72.1119 239.26 8.70152 166.644 1.07817C94.0292 -6.54517 21.1531 44.5053 3.87112 115.103C-13.4109 185.7 31.4456 249.11 104.061 256.734C176.676 264.357 249.552 213.307 266.834 142.709Z"/>
</mask>
<path d="M266.834 142.709C284.116 72.1119 239.26 8.70152 166.644 1.07817C94.0292 -6.54517 21.1531 44.5053 3.87112 115.103C-13.4109 185.7 31.4456 249.11 104.061 256.734C176.676 264.357 249.552 213.307 266.834 142.709Z" fill="#B4F9BA"/>
<path d="M166.592 1.57544C238.909 9.16743 283.558 72.2899 266.349 142.59L267.32 142.828C284.674 71.9339 239.611 8.23561 166.697 0.580905L166.592 1.57544ZM266.349 142.59C249.126 212.943 176.481 263.834 104.113 256.236L104.009 257.231C176.871 264.88 249.978 213.67 267.32 142.828L266.349 142.59ZM104.113 256.236C31.7965 248.644 -12.8525 185.522 4.35678 115.222L3.38546 114.984C-13.9692 185.878 31.0947 249.576 104.009 257.231L104.113 256.236ZM4.35678 115.222C21.5789 44.8688 94.2239 -6.02198 166.592 1.57544L166.697 0.580905C93.8345 -7.06836 20.7273 44.1418 3.38546 114.984L4.35678 115.222Z" fill="black" mask="url(#path-3-inside-2_38117_1910)"/>
<path d="M178.666 113.279L173.977 132.78C173.552 134.547 175.239 135.85 177.019 135.132L205.962 123.448C206.786 123.116 207.423 122.398 207.622 121.574L208.898 116.244C199.254 113.745 189.013 112.748 178.652 113.279H178.666Z" fill="#333333"/>
<path d="M66.7037 113.453L56.0508 157.026C55.8516 157.85 56.104 158.661 56.7416 159.139L78.6982 176.194C80.0531 177.257 82.2713 176.353 82.7096 174.585L92.6984 133.684C83.7058 129.577 78.4193 120.219 69.9049 115.101C68.8689 114.477 67.7929 113.932 66.6905 113.453H66.7037Z" fill="#333333"/>
<path d="M199.36 140.566L125.6 170.328C124.776 170.66 123.886 170.567 123.262 170.075L105.343 156.265C103.989 155.228 101.77 156.132 101.332 157.886L94.3186 186.598C94.1194 187.422 94.3851 188.233 95.0094 188.711L114.987 204.091C115.611 204.569 116.501 204.662 117.325 204.33L193.715 173.505C194.538 173.173 195.176 172.455 195.375 171.644L202.402 142.892C202.84 141.111 201.14 139.795 199.36 140.526V140.566Z" fill="#333333"/>
<path d="M213.214 93.4066L155.341 48.4647C154.716 47.9862 153.813 47.8798 152.989 48.2121L124.006 59.9095C122.213 60.6273 121.682 62.8471 123.037 63.884L178.918 107.271C179.542 107.749 179.808 108.56 179.608 109.384L178.679 113.279C189.039 112.76 199.294 113.757 208.924 116.243L213.918 95.5068C214.117 94.6959 213.852 93.8851 213.227 93.3933L213.214 93.4066Z" fill="#333333"/>
<path d="M102.249 99.556L125.799 89.9721C127.579 89.241 128.11 87.0345 126.769 85.9844L104.839 68.9567C104.214 68.4649 103.311 68.3718 102.474 68.7041L76.2274 79.3913C75.4038 79.7236 74.7663 80.4414 74.567 81.2522L66.7035 113.447C67.806 113.925 68.8819 114.47 69.918 115.095C78.4323 120.213 83.7189 129.584 92.7115 133.678L100.588 101.417C100.787 100.593 101.425 99.8883 102.249 99.556Z" fill="#333333"/>
<g clip-path="url(#clip0_38117_1910)">
<path d="M254.19 182.053C246.304 149.795 266.679 120.831 299.698 117.359C332.717 113.888 365.877 137.225 373.763 169.483C381.649 201.74 361.274 230.705 328.255 234.176C295.236 237.647 262.076 214.311 254.19 182.053Z" stroke="black" stroke-width="1.03857"/>
<mask id="mask0_38117_1910" style="mask-type:luminance" maskUnits="userSpaceOnUse" x="240" y="110" width="150" height="131">
<path d="M360.937 110.309L240.424 123.004L269.209 240.96L389.716 228.264L360.937 110.309Z" fill="white"/>
</mask>
<g mask="url(#mask0_38117_1910)">
<path d="M300.631 117.215C267.587 120.696 247.095 150.041 254.985 182.383C262.885 214.748 296.218 237.86 329.291 234.375C362.335 230.894 382.712 201.866 374.823 169.525C366.922 137.152 333.702 113.731 300.631 117.215Z" fill="#66E070" stroke="black" stroke-width="0.5"/>
<path d="M294.892 169.944C290.341 169.729 285.845 170.164 281.602 171.239L282.126 173.434C282.126 173.434 282.126 173.434 282.126 173.434C282.197 173.727 282.429 173.994 282.734 174.117L282.734 174.117L295.936 179.454C296.266 179.587 296.566 179.527 296.76 179.376C296.952 179.228 297.061 178.978 296.987 178.669L294.892 169.944Z" fill="black" stroke="black" stroke-width="0.5"/>
<path d="M350.776 189.742L345.989 170.135C345.592 170.318 345.205 170.521 344.829 170.748L344.829 170.748C343.091 171.794 341.651 173.236 340.193 174.695C340.049 174.84 339.905 174.984 339.76 175.128C338.208 176.675 336.603 178.197 334.595 179.161L339.102 197.644C339.102 197.644 339.102 197.644 339.102 197.644C339.181 197.96 339.421 198.207 339.711 198.324C340.002 198.442 340.31 198.418 340.535 198.242L340.536 198.241L350.551 190.451L350.551 190.451L350.554 190.449C350.755 190.298 350.847 190.035 350.776 189.742C350.776 189.742 350.776 189.742 350.776 189.742Z" fill="black" stroke="black" stroke-width="0.5"/>
<path d="M285.558 182.399L285.402 182.336V182.33C285.135 182.266 284.896 182.329 284.732 182.456C284.54 182.605 284.431 182.858 284.507 183.17L284.507 183.17L287.712 196.302C287.783 196.59 288.015 196.857 288.32 196.98L323.164 211.06C323.469 211.183 323.78 211.141 323.984 210.984L333.096 203.96L333.097 203.959C333.296 203.807 333.391 203.541 333.321 203.251C333.321 203.251 333.321 203.251 333.321 203.251L330.122 190.139C330.122 190.138 330.122 190.138 330.122 190.138C330.044 189.825 329.804 189.58 329.513 189.461C329.221 189.343 328.911 189.364 328.688 189.536C328.688 189.536 328.687 189.536 328.687 189.536L320.517 195.842C320.517 195.842 320.516 195.842 320.516 195.843C320.15 196.13 319.648 196.173 319.202 195.993L285.558 182.399Z" fill="black" stroke="black" stroke-width="0.5"/>
<path d="M346.34 169.446C349.828 168.028 353.942 168.111 357.921 169.271C362.006 170.461 365.971 172.791 369.009 175.836C370.848 177.679 372.405 179.717 373.717 181.881C374.147 182.589 374.887 182.854 375.505 182.758C375.813 182.709 376.083 182.573 376.271 182.365C376.456 182.16 376.574 181.874 376.561 181.498L376.561 181.498C376.429 177.581 375.886 173.578 374.896 169.515C367.035 137.311 334.109 113.963 301.204 117.16L301.212 117.168L300.692 117.223C267.659 120.698 247.288 149.713 255.177 182.043L255.178 182.048L255.189 182.097C255.189 182.098 255.19 182.099 255.19 182.1C255.672 184.064 256.245 185.992 256.909 187.89C257.015 188.188 257.276 188.379 257.552 188.43C257.828 188.481 258.076 188.388 258.201 188.17C261.282 182.81 265.668 178.249 271.074 175.021L271.074 175.021C274.124 173.203 277.475 171.83 281.007 170.891L278.787 161.658C278.675 161.195 278.822 160.72 279.192 160.436C279.192 160.436 279.192 160.436 279.193 160.435L305.588 139.91C305.588 139.91 305.588 139.91 305.588 139.909C305.954 139.621 306.463 139.579 306.909 139.759L306.815 139.991L306.909 139.759L320.129 145.102C320.61 145.296 320.93 145.695 321.035 146.125C321.141 146.558 321.03 147.037 320.631 147.346L346.34 169.446ZM346.34 169.446L342.822 155.025L342.822 155.025C342.712 154.573 342.369 154.183 341.915 154.003C341.915 154.002 341.915 154.002 341.915 154.002L329.945 149.122L329.943 149.121C329.493 148.942 328.984 148.983 328.617 149.272C328.617 149.272 328.617 149.272 328.617 149.272L318.615 157.049L318.615 157.049C318.219 157.359 318.108 157.837 318.213 158.27C318.317 158.701 318.635 159.101 319.116 159.299L319.117 159.299L329.859 163.676L329.859 163.677C330.167 163.801 330.397 164.062 330.467 164.353L330.468 164.354L334.011 178.887C333.702 179.022 333.391 179.145 333.065 179.247L333.065 179.247C329.945 180.23 326.605 179.617 323.187 178.366C320.964 177.552 318.739 176.481 316.534 175.419C315.338 174.844 314.149 174.271 312.97 173.744C307.311 171.214 301.265 169.795 295.297 169.471L294.916 167.874L294.916 167.873C294.847 167.585 294.94 167.323 295.143 167.163C295.143 167.163 295.143 167.163 295.143 167.163L320.631 147.347L346.34 169.446Z" fill="#B4F9BA" stroke="black" stroke-width="0.5"/>
<path d="M279.407 160.884L279.486 160.823L305.883 140.296C305.883 140.296 305.883 140.296 305.883 140.296C306.09 140.137 306.407 140.092 306.709 140.214L319.929 145.557L319.93 145.557C320.263 145.691 320.473 145.961 320.54 146.237C320.606 146.511 320.531 146.775 320.313 146.942L320.312 146.943L320.312 146.943L294.824 166.76C294.824 166.76 294.824 166.76 294.823 166.76C294.453 167.044 294.307 167.519 294.418 167.981L279.407 160.884ZM279.407 160.884C279.257 161.046 279.194 161.281 279.254 161.525L279.255 161.526L281.473 170.751C285.717 169.681 290.217 169.24 294.765 169.437L294.418 167.982L279.407 160.884Z" fill="#010101" stroke="black" stroke-width="0.5"/>
<path d="M334.467 178.663C336.346 177.74 337.873 176.299 339.401 174.775C339.547 174.629 339.694 174.483 339.84 174.336C341.29 172.883 342.772 171.398 344.565 170.319C344.565 170.319 344.565 170.319 344.565 170.319L334.467 178.663ZM334.467 178.663L330.947 164.227C330.947 164.227 330.947 164.227 330.947 164.227C330.836 163.765 330.485 163.383 330.041 163.204C330.041 163.204 330.041 163.204 330.041 163.204L319.3 158.827C319.3 158.827 319.3 158.827 319.3 158.826C318.969 158.69 318.76 158.419 318.693 158.143C318.627 157.869 318.7 157.604 318.916 157.434C318.917 157.433 318.917 157.433 318.917 157.433L328.919 149.656L328.92 149.655C329.123 149.495 329.438 149.451 329.751 149.576C329.751 149.576 329.751 149.576 329.752 149.576L341.722 154.457L341.722 154.457C342.028 154.58 342.26 154.847 342.331 155.134C342.331 155.134 342.331 155.135 342.331 155.135L345.868 169.636L334.467 178.663Z" fill="#010101" stroke="black" stroke-width="0.5"/>
</g>
<mask id="mask1_38117_1910" style="mask-type:luminance" maskUnits="userSpaceOnUse" x="247" y="103" width="150" height="132">
<path d="M367.832 103.898L247.318 116.594L276.103 234.543L396.611 221.854L367.832 103.898Z" fill="white"/>
</mask>
<g mask="url(#mask1_38117_1910)">
<path d="M261.744 175.714C253.82 143.226 274.298 114.053 307.494 110.556C340.689 107.059 374.03 130.561 381.955 163.049C389.88 195.537 369.402 224.711 336.206 228.208C303.01 231.705 269.675 208.196 261.744 175.708V175.714Z" fill="#B4F9BA"/>
<path d="M301.986 163.294L304.125 172.201C304.319 173.008 303.549 173.603 302.738 173.275L289.536 167.939C289.16 167.787 288.869 167.459 288.778 167.082L288.197 164.648C292.595 163.506 297.267 163.051 301.992 163.294H301.986Z" fill="#333333"/>
<path d="M353.049 163.371L357.908 183.273C357.999 183.65 357.884 184.02 357.593 184.239L347.578 192.028C346.96 192.514 345.948 192.101 345.748 191.294L341.192 172.612C345.294 170.736 347.705 166.461 351.589 164.124C352.062 163.839 352.552 163.59 353.055 163.371H353.049Z" fill="#333333"/>
<path d="M292.547 175.757L326.191 189.351C326.566 189.503 326.972 189.46 327.257 189.235L335.43 182.927C336.048 182.454 337.06 182.866 337.26 183.668L340.459 196.782C340.55 197.159 340.429 197.529 340.144 197.748L331.032 204.772C330.747 204.991 330.341 205.033 329.965 204.881L295.122 190.802C294.746 190.65 294.455 190.322 294.364 189.952L291.159 176.819C290.959 176.006 291.735 175.405 292.547 175.739V175.757Z" fill="#333333"/>
<path d="M307.542 110.553H307.566C340.768 107.05 374.103 130.558 382.028 163.046C383.021 167.126 383.567 171.146 383.7 175.08C383.761 176.829 381.361 177.199 380.392 175.602C379.089 173.453 377.544 171.431 375.721 169.604C369.704 163.575 360.01 160.369 353.055 163.38L349.468 148.675C349.377 148.305 349.093 147.977 348.711 147.825L336.739 142.944C336.357 142.792 335.945 142.835 335.661 143.059L325.658 150.837C325.046 151.316 325.288 152.324 326.1 152.658L336.842 157.036C337.218 157.187 337.508 157.509 337.599 157.886L341.192 172.621C340.817 172.791 340.435 172.949 340.029 173.076C333.631 175.092 326.415 170.539 319.756 167.564C314.067 165.02 307.984 163.605 301.986 163.301L301.562 161.522C301.471 161.146 301.592 160.782 301.877 160.557L327.366 140.74C327.984 140.26 327.736 139.253 326.924 138.925L313.704 133.582C313.328 133.43 312.916 133.473 312.631 133.697L286.234 154.225C285.949 154.443 285.828 154.814 285.919 155.19L288.197 164.661C284.598 165.596 281.187 166.981 278.091 168.826C272.723 172.032 268.366 176.561 265.307 181.886C264.925 182.548 263.841 182.347 263.562 181.564C262.895 179.658 262.32 177.721 261.835 175.748L261.823 175.693C253.898 143.217 274.371 114.056 307.554 110.565L307.542 110.553Z" fill="#B4F9BA"/>
<path d="M286.228 154.211L312.625 133.684C312.91 133.465 313.322 133.417 313.698 133.568L326.918 138.911C327.736 139.239 327.978 140.253 327.36 140.727L301.871 160.544C301.586 160.762 301.465 161.133 301.556 161.509L301.98 163.288C297.254 163.051 292.577 163.507 288.185 164.642L285.907 155.171C285.816 154.8 285.937 154.43 286.222 154.205L286.228 154.211Z" fill="#333333"/>
<path d="M336.836 157.025L326.094 152.648C325.282 152.314 325.04 151.306 325.652 150.826L335.655 143.049C335.939 142.824 336.351 142.782 336.733 142.933L348.705 147.815C349.081 147.967 349.371 148.294 349.462 148.665L353.049 163.37C352.546 163.588 352.055 163.837 351.583 164.123C347.699 166.46 345.288 170.741 341.186 172.611L337.593 157.875C337.502 157.499 337.212 157.177 336.836 157.025Z" fill="#333333"/>
</g>
<path d="M263.991 182.81L258.143 192.326C258.143 192.326 232.42 141.198 294.175 115.074C294.175 115.074 268.411 122.111 262.171 148.665C262.171 148.665 257.583 167.894 263.991 182.81Z" fill="#66E070"/>
<path d="M261.712 175.76C253.796 143.379 274.342 114.297 307.601 110.8C340.859 107.304 374.239 130.718 382.154 163.098C390.07 195.479 369.524 224.562 336.266 228.058C303.007 231.555 269.628 208.141 261.712 175.76Z" stroke="black" stroke-width="0.5"/>
</g>
<defs>
<clipPath id="clip0_38117_1910">
<rect width="156.187" height="137.062" fill="white" transform="matrix(-1 0 0 1 396.611 103.898)"/>
</clipPath>
</defs>
</svg>
