<svg
  xmlns="http://www.w3.org/2000/svg"
  width="52.414"
  height="52.414"
  viewBox="0 0 52.414 52.414"
>
  <path
    fill-rule="evenodd"
    d="M0 0h52.414v52.414H0V0Zm20.384 34.19v7.33c0 1.194.967 2.159 2.159 2.159h7.329a2.16 2.16 0 0 0 2.16-2.16v-3.665c0-1.61.65-3.066 1.705-4.118a5.804 5.804 0 0 1 4.118-1.706h3.665a2.16 2.16 0 0 0 2.159-2.16v-7.327a2.16 2.16 0 0 0-2.16-2.16h-7.326a2.16 2.16 0 0 0-2.159 2.16v3.842a5.644 5.644 0 0 1-5.643 5.645h-3.842a2.16 2.16 0 0 0-2.16 2.16h-.005ZM8.736 29.871V22.54a2.16 2.16 0 0 1 2.16-2.16h3.847a5.644 5.644 0 0 0 5.644-5.643v-3.842c0-1.191.964-2.159 2.159-2.159h7.326a2.16 2.16 0 0 1 2.16 2.16v7.328a2.16 2.16 0 0 1-2.16 2.16h-3.665a5.805 5.805 0 0 0-4.117 1.706 5.795 5.795 0 0 0-1.706 4.117v3.665a2.16 2.16 0 0 1-2.16 2.16h-7.329a2.159 2.159 0 0 1-2.159-2.16Z"
  />
</svg>
